<svg height="521pt" viewBox="-18 -16 521 521.33271" width="521pt" xmlns="http://www.w3.org/2000/svg" fill="#3c3c3c">
    <path d="m463.609375 116.101562-182.921875-32.976562c-14.300781-2.546875-28.066406 6.972656-30.648438 21.292969l-3.214843 17.855469h-68.289063c-14.546875 0-26.386718 11.835937-26.386718 26.390624v313.703126c0 14.546874 11.839843 26.382812 26.386718 26.382812h185.855469c10.058594 0 18.816406-5.65625 23.269531-13.953125l10.941406 1.96875c1.570313.285156 3.140626.417969 4.6875.417969 12.511719 0 23.65625-8.964844 25.964844-21.707032l55.640625-308.730468c2.582031-14.3125-6.972656-28.066406-21.285156-30.644532zm-89.875 346.265626c0 5.152343-4.1875 9.339843-9.34375 9.339843h-185.855469c-5.152344 0-9.34375-4.1875-9.34375-9.339843v-313.703126c0-5.15625 4.191406-9.339843 9.34375-9.339843h185.855469c5.15625 0 9.34375 4.183593 9.34375 9.339843zm94.386719-318.640626-55.644532 308.722657c-.921874 5.074219-5.804687 8.429687-10.855468 7.542969l-10.839844-1.957032v-309.371094c0-14.554687-11.84375-26.390624-26.390625-26.390624h-100.246094l2.667969-14.828126c.917969-5.078124 5.785156-8.464843 10.855469-7.539062l182.917969 32.976562c5.070312.90625 8.445312 5.773438 7.535156 10.84375zm0 0"/>
    <path d="m301.425781 257.324219c-9.761719 0-18.875 3.78125-25.703125 10.320312-6.820312-6.539062-15.9375-10.320312-25.699218-10.320312-20.636719 0-37.433594 16.796875-37.433594 37.433593 0 19.886719 46.617187 75.988282 63.140625 75.988282 16.519531 0 63.136719-56.101563 63.136719-75.988282-.003907-20.636718-16.800782-37.433593-37.441407-37.433593zm-25.703125 96.074219c-12.984375-6.183594-46.089844-49.859376-46.089844-58.640626 0-11.238281 9.144532-20.386718 20.390626-20.386718 7.648437 0 14.582031 4.308594 18.097656 11.257812 2.90625 5.730469 12.300781 5.730469 15.207031 0 3.515625-6.949218 10.453125-11.257812 18.097656-11.257812 11.242188 0 20.390625 9.148437 20.390625 20.386718 0 8.78125-33.101562 52.457032-46.09375 58.640626zm0 0"/>
    <path d="m356.691406 164.890625c0 4.707031-3.816406 8.519531-8.523437 8.519531s-8.519531-3.8125-8.519531-8.519531c0-4.710937 3.8125-8.523437 8.519531-8.523437s8.523437 3.8125 8.523437 8.523437zm0 0"/>
    <path d="m450.441406 156.367188c0 4.707031-3.820312 8.523437-8.523437 8.523437-4.707031 0-8.527344-3.816406-8.527344-8.523437 0-4.707032 3.820313-8.523438 8.527344-8.523438 4.703125 0 8.523437 3.816406 8.523437 8.523438zm0 0"/>
    <path d="m203.285156 454.660156c0 4.707032-3.820312 8.519532-8.523437 8.519532-4.707031 0-8.527344-3.8125-8.527344-8.519532 0-4.703125 3.820313-8.523437 8.527344-8.523437 4.703125 0 8.523437 3.820312 8.523437 8.523437zm0 0"/>
</svg>
